:SAMPLES-PER-SECOND 30
:FULLY-SPECIFIED
:DEGREES
434
root  -2.20384 37.1806 15.4042 -175.497 -55.7449 177.594
RightUpLeg  -3.00268 -5.46739 -16.727
RightLeg  35.2598 2.6579 1.76181
RightFoot  -13.2796 0.412119 29.1557
RightToes  -1.39699e-009 0 -3.6325e-017
Spine  18.4809 4.14907 2.38373
Spine1  18.0786 0.0966338 13.5362
HEad  -30.9579 -48.0442 18.4614
LeftShoulder1  1.06514 -3.95651 -6.60464
LeftArm  18.3663 -33.2823 -79.3422
LeftForeArm  10.6632 -77.0722 -71.7356
LeftHand  -0.793205 2.75499 34.3931
RightShoulder  1.91448 6.74377 11.6356
RightArm  17.1 -5.64277 54.0992
RightForeArm  74.5997 69.5328 143.358
RightHand  -1.24348 1.22462 -21.7754
LeftUpLeg  -32.554 -10.1043 2.08122
LeftLeg  33.3292 -8.02661 -5.29729
LeftFoot  -4.9729 0.429635 -7.18135
LeftToes  3.40148e-010 1.80944e-010 1.01921e-010
435
root  -2.1882 37.0568 15.4273 -175.011 -56.1976 177.14
RightUpLeg  -3.6413 -5.77017 -17.0822
RightLeg  36.6684 2.79531 1.96973
RightFoot  -13.547 0.485038 29.4145
RightToes  -1.39699e-009 0 -3.6325e-017
Spine  18.4828 3.98 2.40258
Spine1  18.4568 -0.198994 13.6964
HEad  -31.5413 -48.0051 18.6923
LeftShoulder1  1.05677 -3.9309 -6.53474
LeftArm  18.2055 -33.366 -79.0883
LeftForeArm  11.1031 -77.1192 -72.4819
LeftHand  -0.74863 2.89633 34.3235
RightShoulder  1.9141 6.75729 11.5869
RightArm  17.3306 -5.45209 54.1946
RightForeArm  74.7907 69.2863 143.877
RightHand  -1.2719 1.2742 -22.0957
LeftUpLeg  -33.2463 -10.5638 1.83864
LeftLeg  34.1573 -7.92204 -5.39367
LeftFoot  -5.14049 0.412583 -7.0431
LeftToes  3.40148e-010 1.80944e-010 1.01921e-010
436
root  -2.12693 36.9647 15.4343 -175.252 -56.3991 177.252
RightUpLeg  -4.01818 -5.42791 -16.8993
RightLeg  37.7395 2.57854 1.87427
RightFoot  -13.6996 0.531209 29.7433
RightToes  -1.39699e-009 0 -3.6325e-017
Spine  18.9696 3.96217 2.5219
Spine1  18.7357 -0.323126 13.9891
HEad  -32.1736 -47.9232 18.9545
LeftShoulder1  1.05211 -3.95919 -6.39549
LeftArm  18.0029 -33.3839 -78.9977
LeftForeArm  11.0424 -77.1269 -72.6629
LeftHand  -0.757276 2.89139 34.6313
RightShoulder  1.9176 6.76406 11.5587
RightArm  17.4073 -5.20528 54.2327
RightForeArm  74.1949 69.0634 144.301
RightHand  -1.37032 1.46931 -23.0997
LeftUpLeg  -33.5756 -10.5912 1.92181
LeftLeg  34.8575 -7.99237 -5.5901
LeftFoot  -5.34279 0.397973 -6.9797
LeftToes  3.40148e-010 1.80944e-010 1.01921e-010
437
root  -2.10132 36.9036 15.4416 -175.123 -56.6311 177.043
RightUpLeg  -4.24963 -5.58486 -17.0702
RightLeg  38.451 2.68932 2.01955
RightFoot  -13.7815 0.556138 29.9098
RightToes  -1.39699e-009 0 -3.6325e-017
Spine  19.0777 3.88773 2.53234
Spine1  19.2721 -0.537982 14.1984
HEad  -32.645 -47.8258 19.1738
LeftShoulder1  1.05243 -3.9827 -6.33332
LeftArm  17.9456 -33.4496 -78.9499
LeftForeArm  10.9065 -77.1232 -72.6396
LeftHand  -0.809563 2.75556 35.0836
RightShoulder  1.93184 6.85157 11.5383
RightArm  17.183 -5.04868 54.1677
RightForeArm  73.7727 68.8465 144.712
RightHand  -1.49199 1.78604 -24.0271
LeftUpLeg  -33.7938 -10.8284 1.83123
LeftLeg  35.212 -7.97151 -5.64984
LeftFoot  -5.49296 0.390989 -7.00488
LeftToes  3.40148e-010 1.80944e-010 1.01921e-010
438
root  -2.08701 36.882 15.4427 -174.885 -56.6715 176.82
RightUpLeg  -4.50345 -5.94573 -17.3268
RightLeg  38.8685 3.00489 2.32309
RightFoot  -13.7047 0.535192 29.8632
RightToes  -1.39699e-009 0 -3.6325e-017
Spine  19.1392 3.91659 2.41186
Spine1  19.658 -0.666274 14.4321
HEad  -32.705 -47.7131 19.206
LeftShoulder1  1.0548 -3.92363 -6.51309
LeftArm  18.0619 -33.5345 -78.8285
LeftForeArm  11.1 -77.1433 -72.9792
LeftHand  -0.829148 2.70366 35.2239
RightShoulder  1.96015 7.01255 11.5195
RightArm  16.7449 -5.12095 54.0205
RightForeArm  74.2678 68.5846 145.236
RightHand  -1.54995 1.98537 -24.279
LeftUpLeg  -33.9089 -10.9746 1.7575
LeftLeg  35.2564 -7.8981 -5.60445
LeftFoot  -5.55837 0.391297 -7.0823
LeftToes  3.40148e-010 1.80944e-010 1.01921e-010
439
root  -2.05608 36.903 15.4367 -175.048 -56.4422 177.063
RightUpLeg  -4.79769 -5.86756 -17.1706
RightLeg  39.0331 3.07122 2.39526
RightFoot  -13.3712 0.447648 29.8146
RightToes  -1.39699e-009 0 -3.6325e-017
Spine  19.562 4.09683 2.36994
Spine1  19.5487 -0.563773 14.7118
HEad  -32.342 -47.6244 19.026
LeftShoulder1  1.05739 -3.83073 -6.76303
LeftArm  18.1389 -33.5778 -78.6942
LeftForeArm  11.6416 -77.1861 -73.6799
LeftHand  -0.801009 2.78971 35.1682
RightShoulder  1.97459 7.10425 11.4914
RightArm  16.3374 -5.28294 53.8746
RightForeArm  75.2426 68.265 145.87
RightHand  -1.56283 2.03728 -24.3084
LeftUpLeg  -33.8761 -10.7809 1.95671
LeftLeg  35.1031 -7.88168 -5.55965
LeftFoot  -5.53811 0.396891 -7.17
LeftToes  3.40148e-010 1.80944e-010 1.01921e-010
440
root  -2.04565 36.952 15.4377 -175.298 -56.2499 177.457
RightUpLeg  -5.0447 -5.61214 -16.8524
RightLeg  39.0015 2.89172 2.23706
RightFoot  -12.811 0.303353 29.8748
RightToes  -1.39699e-009 0 -3.6325e-017
Spine  19.999 4.19465 2.52976
Spine1  19.1997 -0.410801 14.827
HEad  -31.841 -47.6457 18.7801
LeftShoulder1  1.05852 -3.82946 -6.78098
LeftArm  17.9826 -33.6599 -78.5635
LeftForeArm  12.2555 -77.2258 -74.3272
LeftHand  -0.761635 2.91538 35.156
RightShoulder  1.95434 7.0366 11.4106
RightArm  16.0715 -5.2672 53.838
RightForeArm  75.9488 67.9483 146.468
RightHand  -1.60731 2.13744 -24.6557
LeftUpLeg  -33.786 -10.6304 2.22316
LeftLeg  34.7915 -7.87029 -5.48618
LeftFoot  -5.43209 0.406449 -7.23839
LeftToes  3.40148e-010 1.80944e-010 1.01921e-010
441
root  -2.06053 37.0057 15.4414 -175.41 -56.1676 177.692
RightUpLeg  -5.21224 -5.51967 -16.6698
RightLeg  38.946 2.7015 2.06767
RightFoot  -12.1814 0.140248 29.9056
RightToes  -1.39699e-009 0 -3.6325e-017
Spine  20.3233 4.17217 2.7554
Spine1  18.8415 -0.282403 14.6964
HEad  -31.5658 -47.7858 18.6899
LeftShoulder1  1.05626 -3.92361 -6.5415
LeftArm  17.6806 -33.9463 -78.3125
LeftForeArm  12.5977 -77.2442 -74.6146
LeftHand  -0.722083 3.0323 35.005
RightShoulder  1.91478 6.89227 11.2742
RightArm  15.863 -5.04378 53.9479
RightForeArm  76.2987 67.6905 146.931
RightHand  -1.65885 2.27189 -24.9925
LeftUpLeg  -33.6565 -10.6383 2.37626
LeftLeg  34.4234 -7.83706 -5.38584
LeftFoot  -5.30191 0.416232 -7.28216
LeftToes  3.40148e-010 1.80944e-010 1.01921e-010
442
root  -2.0536 37.0424 15.4253 -175.673 -55.9913 177.937
RightUpLeg  -5.31829 -5.32499 -16.4438
RightLeg  39.0214 2.49698 1.896
RightFoot  -11.7067 0.0165514 29.8235
RightToes  -1.39699e-009 0 -3.6325e-017
Spine  20.8896 4.24048 2.84092
Spine1  18.3857 -0.0548503 14.5202
HEad  -31.6456 -47.9046 18.8504
LeftShoulder1  1.04404 -3.97644 -6.24454
LeftArm  17.4822 -34.4872 -77.9251
LeftForeArm  12.4529 -77.2342 -74.4389
LeftHand  -0.692651 3.10637 34.6967
RightShoulder  1.88627 6.79216 11.1657
RightArm  15.6579 -4.79859 54.108
RightForeArm  76.5733 67.4866 147.289
RightHand  -1.63307 2.19578 -24.8516
LeftUpLeg  -33.4374 -10.4455 2.53089
LeftLeg  34.2105 -7.8833 -5.3754
LeftFoot  -5.26505 0.419801 -7.30921
LeftToes  3.40148e-010 1.80944e-010 1.01921e-010
443
root  -2.03541 37.0483 15.3907 -175.992 -55.8127 178.158
RightUpLeg  -5.35689 -4.94601 -16.1639
RightLeg  39.2032 2.22204 1.66901
RightFoot  -11.5397 -0.0268354 29.7697
RightToes  -1.39699e-009 0 -3.6325e-017
Spine  21.4982 4.37862 2.7628
Spine1  17.961 0.174337 14.4291
HEad  -31.8771 -47.8584 19.0875
LeftShoulder1  1.01939 -3.91447 -6.00171
LeftArm  17.4815 -35.1574 -77.5726
LeftForeArm  11.9117 -77.1985 -73.8454
LeftHand  -0.711173 3.04863 34.7279
RightShoulder  1.87529 6.74821 11.134
RightArm  15.5538 -4.61334 54.2133
RightForeArm  76.8092 67.3394 147.544
RightHand  -1.55649 1.93508 -24.538
LeftUpLeg  -33.2608 -10.1288 2.66765
LeftLeg  34.2639 -7.99911 -5.46955
LeftFoot  -5.36599 0.413964 -7.30949
LeftToes  3.40148e-010 1.80944e-010 1.01921e-010
444
root  -2.07275 37.0247 15.3609 -175.839 -55.9354 177.961
RightUpLeg  -5.31791 -4.83654 -16.2243
RightLeg  39.4127 2.03577 1.51842
RightFoot  -11.6082 -0.00885352 29.859
RightToes  -1.39699e-009 0 -3.6325e-017
Spine  21.4696 4.34265 2.62544
Spine1  17.9526 0.13734 14.3231
HEad  -31.9871 -47.6966 19.1408
LeftShoulder1  0.993751 -3.82806 -5.79052
LeftArm  17.5422 -35.746 -77.3557
LeftForeArm  11.3398 -77.1551 -73.1297
LeftHand  -0.778896 2.86724 35.2517
RightShoulder  1.86838 6.72211 11.1108
RightArm  15.6435 -4.43258 54.2961
RightForeArm  76.8389 67.3151 147.585
RightHand  -1.54104 1.84523 -24.5899
LeftUpLeg  -33.2984 -10.2217 2.53445
LeftLeg  34.4911 -8.00571 -5.52154
LeftFoot  -5.52618 0.401965 -7.25634
LeftToes  3.40148e-010 1.80944e-010 1.01921e-010
445
root  -2.16393 36.9851 15.3384 -175.273 -56.3022 177.333
RightUpLeg  -5.2064 -5.14971 -16.7048
RightLeg  39.7143 2.07471 1.57063
RightFoot  -11.6898 0.0127282 29.9955
RightToes  -1.39699e-009 0 -3.6325e-017
Spine  20.908 4.15153 2.45139
Spine1  18.3219 -0.123537 14.1871
HEad  -31.968 -47.605 19.0238
LeftShoulder1  0.982333 -3.82521 -5.62103
LeftArm  17.5265 -36.0606 -77.2091
LeftForeArm  11.055 -77.1291 -72.7035
LeftHand  -0.839189 2.70868 35.6991
RightShoulder  1.8657 6.73504 11.056
RightArm  15.8671 -4.2793 54.4026
RightForeArm  76.5457 67.4584 147.335
RightHand  -1.60293 2.03787 -24.9076
LeftUpLeg  -33.4189 -10.739 2.1204
LeftLeg  34.7897 -7.86223 -5.47914
LeftFoot  -5.67107 0.387647 -7.13599
LeftToes  3.40148e-010 1.80944e-010 1.01921e-010
446
root  -2.2271 36.9406 15.3013 -175.047 -56.5299 176.858
RightUpLeg  -5.05509 -5.37762 -17.1024
RightLeg  40.2145 2.20685 1.72006
RightFoot  -11.664 0.00619477 30.059
RightToes  -1.39699e-009 0 -3.6325e-017
Spine  20.6976 4.10811 2.24093
Spine1  18.5596 -0.259666 14.2001
HEad  -32.0504 -47.6753 19.0215
LeftShoulder1  0.988766 -3.89576 -5.57489
LeftArm  17.4854 -36.0288 -77.0929
LeftForeArm  11.0151 -77.1256 -72.6465
LeftHand  -0.859558 2.64724 35.7335
RightShoulder  1.8791 6.80584 11.061
RightArm  16.1016 -4.24637 54.434
RightForeArm  75.9504 67.687 146.924
RightHand  -1.64333 2.17763 -25.0614
LeftUpLeg  -33.3573 -11.0319 1.78032
LeftLeg  35.1972 -7.77389 -5.49856
LeftFoot  -5.83335 0.369524 -6.94993
LeftToes  3.40148e-010 1.80944e-010 1.01921e-010
